HIERARCHY
ROOT pelvis
{
	OFFSET 0.000000 0.000000 0.000000
	CHANNELS 6 Xposition Yposition Zposition Xrotation Yrotation Zrotation
	JOINT l_hip
	{
		OFFSET 0.195211 -0.245059 -0.022011
		CHANNELS 3 Xrotation Yrotation Zrotation
		JOINT l_knee
		{
			OFFSET 0.083896 -0.996307 -0.018298
			CHANNELS 3 Xrotation Yrotation Zrotation
			JOINT l_ankle
			{
				OFFSET -0.031606 -1.048662 -0.119000
				CHANNELS 3 Xrotation Yrotation Zrotation
				JOINT l_foot
				{
					OFFSET 0.063841 -0.149483 0.312863
					CHANNELS 3 Xrotation Yrotation Zrotation
					End Site
					{
						OFFSET 0.000000 0.000000 0.000000
					}
				}
			}
		}
	}
	JOINT r_hip
	{
		OFFSET -0.188785 -0.243354 -0.013119
		CHANNELS 3 Xrotation Yrotation Zrotation
		JOINT r_knee
		{
			OFFSET -0.098896 -1.013926 -0.025127
			CHANNELS 3 Xrotation Yrotation Zrotation
			JOINT r_ankle
			{
				OFFSET 0.038376 -1.049454 -0.114596
				CHANNELS 3 Xrotation Yrotation Zrotation
				JOINT r_foot
				{
					OFFSET -0.060300 -0.126955 0.322518
					CHANNELS 3 Xrotation Yrotation Zrotation
					End Site
					{
						OFFSET 0.000000 0.000000 0.000000
					}
				}
			}
		}
	}
	JOINT spine1
	{
		OFFSET -0.006861 0.282462 -0.060688
		CHANNELS 3 Xrotation Yrotation Zrotation
		JOINT spine2
		{
			OFFSET 0.009796 0.349212 -0.004686
			CHANNELS 3 Xrotation Yrotation Zrotation
			JOINT spine3
			{
				OFFSET 0.005545 0.134239 0.076232
				CHANNELS 3 Xrotation Yrotation Zrotation
				JOINT neck
				{
					OFFSET -0.005369 0.569656 -0.136135
					CHANNELS 3 Xrotation Yrotation Zrotation
					JOINT head
					{
						OFFSET 0.009621 0.170484 0.137338
						CHANNELS 3 Xrotation Yrotation Zrotation
						End Site
						{
							OFFSET 0.000000 0.000000 0.000000
						}
					}
				}
				JOINT l_collar
				{
					OFFSET 0.205981 0.322192 -0.100872
					CHANNELS 3 Xrotation Yrotation Zrotation
					JOINT l_shoulder
					{
						OFFSET 0.233388 0.086823 -0.019950
						CHANNELS 3 Xrotation Yrotation Zrotation
						JOINT l_elbow
						{
							OFFSET 0.687295 -0.032736 -0.075278
							CHANNELS 3 Xrotation Yrotation Zrotation
							JOINT l_wrist
							{
								OFFSET 0.651109 0.024639 0.000120
								CHANNELS 3 Xrotation Yrotation Zrotation
								JOINT l_hand
								{
									OFFSET 0.217934 -0.026487 -0.036124
									CHANNELS 3 Xrotation Yrotation Zrotation
									End Site
									{
										OFFSET 0.000000 0.000000 0.000000
									}
								}
							}
						}
					}
				}
				JOINT r_collar
				{
					OFFSET -0.210726 0.316244 -0.114374
					CHANNELS 3 Xrotation Yrotation Zrotation
					JOINT r_shoulder
					{
						OFFSET -0.244017 0.089684 -0.026814
						CHANNELS 3 Xrotation Yrotation Zrotation
						JOINT r_elbow
						{
							OFFSET -0.672913 -0.035979 -0.055153
							CHANNELS 3 Xrotation Yrotation Zrotation
							JOINT r_wrist
							{
								OFFSET -0.670689 0.023586 -0.009661
								CHANNELS 3 Xrotation Yrotation Zrotation
								JOINT r_hand
								{
									OFFSET -0.219937 -0.019827 -0.028502
									CHANNELS 3 Xrotation Yrotation Zrotation
									End Site
									{
										OFFSET 0.000000 0.000000 0.000000
									}
								}
							}
						}
					}
				}
			}
		}
	}
}
MOTION
Frames: 5
Frame Time: 0.016667
0.000000 0.000000 0.000000 0.000000 0.000000 0.000000 -5.632375 -5.145089 -0.469006 59.058552 -10.115904 -0.755688 0.000000 0.000000 0.000000 0.000000 0.000000 0.000000 -5.463493 -0.477805 2.076247 14.503213 2.126765 3.628331 0.000000 0.000000 0.000000 0.000000 0.000000 0.000000 8.037657 -0.542239 1.761844 1.356588 -3.038016 3.128915 5.660981 -3.975268 0.802728 3.066569 -7.608945 3.118132 13.538126 -8.635113 1.960800 4.605420 3.039157 -23.863325 -4.224226 -16.214093 -55.989683 17.943246 -34.277568 13.745301 0.000000 0.000000 0.000000 0.000000 0.000000 0.000000 0.206318 -1.627325 27.073083 8.163524 10.281324 53.499727 1.525699 18.788919 -10.531781 0.000000 0.000000 0.000000 0.000000 0.000000 0.000000 
0.000000 0.000000 0.000000 0.000000 0.000000 0.000000 -8.041845 -5.020220 -0.947137 59.249814 -9.021745 -1.533773 0.000000 0.000000 0.000000 0.000000 0.000000 0.000000 -3.024704 -0.302076 2.208182 14.327278 2.388285 3.603488 0.000000 0.000000 0.000000 0.000000 0.000000 0.000000 9.610851 0.107403 2.239611 1.043276 -2.928376 2.782936 5.737015 -3.842560 0.478599 3.306557 -7.317692 3.210566 13.688759 -8.417874 1.723741 4.423910 3.051097 -24.195752 -3.581339 -15.655132 -56.260660 18.321095 -32.975342 13.096923 0.000000 0.000000 0.000000 0.000000 0.000000 0.000000 -0.207587 -1.619895 26.839433 7.548984 10.703475 53.303325 1.741060 20.466007 -10.688772 0.000000 0.000000 0.000000 0.000000 0.000000 0.000000 
0.000000 0.000000 0.000000 0.000000 0.000000 0.000000 -10.968654 -4.980512 -1.428831 58.227854 -8.074133 -2.613139 0.000000 0.000000 0.000000 0.000000 0.000000 0.000000 -1.051199 -0.727974 2.303152 12.400736 3.451112 2.858219 0.000000 0.000000 0.000000 0.000000 0.000000 0.000000 9.673801 0.877196 1.980246 -0.055915 -2.942755 2.368481 5.644564 -3.701919 0.131580 3.407254 -7.219046 3.247391 14.439627 -8.509914 1.590894 4.633202 4.424474 -24.577423 -2.377463 -14.859649 -56.219309 18.862834 -31.542345 12.132734 0.000000 0.000000 0.000000 0.000000 0.000000 0.000000 -0.442551 -2.789394 26.785684 7.649876 11.237601 53.317579 2.469795 22.303563 -10.792043 0.000000 0.000000 0.000000 0.000000 0.000000 0.000000 
0.000000 0.000000 0.000000 0.000000 0.000000 0.000000 -13.377101 -4.808494 -2.064845 56.739305 -7.094677 -3.619785 0.000000 0.000000 0.000000 0.000000 0.000000 0.000000 1.244133 -1.214690 2.200699 10.887654 4.736012 2.040272 0.000000 0.000000 0.000000 0.000000 0.000000 0.000000 9.914935 1.593096 1.652957 -0.503419 -2.969493 1.980884 5.724244 -3.726426 -0.198631 2.647171 -7.075468 3.009123 14.886058 -8.856345 1.218674 4.652067 5.889585 -25.308884 -1.036901 -13.881826 -55.701444 19.669884 -30.658441 11.184566 0.000000 0.000000 0.000000 0.000000 0.000000 0.000000 -0.812858 -3.512069 27.002805 7.603298 11.873403 52.886075 3.020585 24.550902 -10.846557 0.000000 0.000000 0.000000 0.000000 0.000000 0.000000 
0.000000 0.000000 0.000000 0.000000 0.000000 0.000000 -15.315832 -5.330641 -2.794416 54.069368 -6.473629 -4.121362 0.000000 0.000000 0.000000 0.000000 0.000000 0.000000 3.673461 -1.647836 2.372942 8.755605 6.007697 1.473388 0.000000 0.000000 0.000000 0.000000 0.000000 0.000000 9.127721 2.659201 1.259811 0.055260 -3.131979 1.962125 5.990199 -3.332238 -0.249234 3.049966 -7.412693 3.349759 14.692540 -9.371844 1.259834 4.756705 5.626545 -25.430386 -0.531531 -13.412985 -55.992178 18.831510 -29.280242 10.216214 0.000000 0.000000 0.000000 0.000000 0.000000 0.000000 -0.935862 -3.228847 26.597543 6.945410 12.444831 52.974785 3.062973 26.661584 -11.241467 0.000000 0.000000 0.000000 0.000000 0.000000 0.000000 
